<?xml version="1.0" encoding="UTF-8"?>
<svg id="_레이어_1" data-name="레이어 1" xmlns="http://www.w3.org/2000/svg" width="640" height="512" version="1.1" viewBox="0 0 640 512">
  <defs>
    <style>
      .cls-1 {
        fill: #262b9c;
        stroke-width: 0px;
      }
    </style>
  </defs>
  <path class="cls-1" d="M48,0C21.5,0,0,21.5,0,48v416c0,26.5,21.5,48,48,48h96v-80c0-26.5,21.5-48,48-48s48,21.5,48,48v80h96c15.1,0,28.5-6.9,37.3-17.8-32.9-32-53.3-76.7-53.3-126.2s24.9-103.5,64-135.8V48c0-26.5-21.5-48-48-48H48ZM64,240c0-8.8,7.2-16,16-16h32c8.8,0,16,7.2,16,16v32c0,8.8-7.2,16-16,16h-32c-8.8,0-16-7.2-16-16v-32ZM176,224h32c8.8,0,16,7.2,16,16v32c0,8.8-7.2,16-16,16h-32c-8.8,0-16-7.2-16-16v-32c0-8.8,7.2-16,16-16ZM256,240c0-8.8,7.2-16,16-16h32c8.8,0,16,7.2,16,16v32c0,8.8-7.2,16-16,16h-32c-8.8,0-16-7.2-16-16v-32ZM80,96h32c8.8,0,16,7.2,16,16v32c0,8.8-7.2,16-16,16h-32c-8.8,0-16-7.2-16-16v-32c0-8.8,7.2-16,16-16ZM160,112c0-8.8,7.2-16,16-16h32c8.8,0,16,7.2,16,16v32c0,8.8-7.2,16-16,16h-32c-8.8,0-16-7.2-16-16v-32ZM272,96h32c8.8,0,16,7.2,16,16v32c0,8.8-7.2,16-16,16h-32c-8.8,0-16-7.2-16-16v-32c0-8.8,7.2-16,16-16ZM640,368c0-79.5-64.5-144-144-144s-144,64.5-144,144h0c0,79.5,64.5,144,144,144s144-64.5,144-144ZM563.3,324.7c6.2,6.2,6.2,16.4,0,22.6l-72,72c-6.2,6.2-16.4,6.2-22.6,0l-40-40c-6.2-6.2-6.2-16.4,0-22.6s16.4-6.2,22.6,0l28.7,28.7,60.7-60.7c6.2-6.2,16.4-6.2,22.6,0h0Z"/>
</svg>