<?xml version="1.0" encoding="UTF-8"?>
<svg id="_레이어_1" data-name="레이어 1" xmlns="http://www.w3.org/2000/svg" width="576" height="512" version="1.1" viewBox="0 0 576 512">
  <defs>
    <style>
      .cls-1 {
        fill: #262b9c;
        stroke-width: 0px;
      }
    </style>
  </defs>
  <path class="cls-1" d="M320,32c0-9.9-4.5-19.2-12.3-25.2s-17.9-8.2-27.5-5.8L100.3,46c-21.3,5.3-36.3,24.5-36.3,46.5v355.5h-32c-17.7,0-32,14.3-32,32s14.3,32,32,32h288V32ZM256,256c0,17.7-10.7,32-24,32s-24-14.3-24-32,10.7-32,24-32,24,14.3,24,32ZM352,128h96v352c0,17.7,14.3,32,32,32h64c17.7,0,32-14.3,32-32s-14.3-32-32-32h-32V128c0-35.3-28.7-64-64-64h-96v64Z"/>
</svg>