<?xml version="1.0" encoding="UTF-8"?>
<svg id="_레이어_1" data-name="레이어 1" xmlns="http://www.w3.org/2000/svg" width="512" height="512" version="1.1" viewBox="0 0 512 512">
  <defs>
    <style>
      .cls-1 {
        fill: #262b9c;
        stroke-width: 0px;
      }
    </style>
  </defs>
  <path class="cls-1" d="M256,48c-114.9,0-208,93.1-208,208v40c0,13.3-10.7,24-24,24S0,309.3,0,296v-40C0,114.6,114.6,0,256,0s256,114.6,256,256v144.1c0,48.6-39.4,88-88.1,88h-110.3c-8.3,14.2-23.8,23.9-41.6,23.9h-32c-26.5,0-48-21.5-48-48s21.5-48,48-48h32c17.8,0,33.3,9.7,41.6,24h110.4c22.1.1,40-17.8,40-39.9v-144.1c0-114.9-93.1-208-208-208ZM144,208h16c17.7,0,32,14.3,32,32v112c0,17.7-14.3,32-32,32h-16c-35.3,0-64-28.7-64-64v-48c0-35.3,28.7-64,64-64ZM368,208c35.3,0,64,28.7,64,64v48c0,35.3-28.7,64-64,64h-16c-17.7,0-32-14.3-32-32v-112c0-17.7,14.3-32,32-32h16Z"/>
</svg>