<?xml version="1.0" encoding="UTF-8"?>
<svg id="_레이어_1" data-name="레이어 1" xmlns="http://www.w3.org/2000/svg" width="640" height="512" version="1.1" viewBox="0 0 640 512">
  <defs>
    <style>
      .cls-1 {
        fill: #262b9c;
        stroke-width: 0px;
      }
    </style>
  </defs>
  <path class="cls-1" d="M192,96c26.5,0,48-21.5,48-48S218.5,0,192,0s-48,21.5-48,48,21.5,48,48,48ZM184,480v-128h16v128c0,17.7,14.3,32,32,32s32-14.3,32-32V192h136c17.7,0,32-14.3,32-32s-14.3-32-32-32h-16v-64h192v192h-192v-32h-64v48c0,26.5,21.5,48,48,48h224c26.5,0,48-21.5,48-48V48c0-26.5-21.5-48-48-48h-224c-26.5,0-48,21.5-48,48v80h-142.9c-33.7,0-64.9,17.7-82.3,46.6l-58.3,97c-9.1,15.1-4.2,34.8,10.9,43.9s34.8,4.2,43.9-10.9l28.7-47.7v223.1c0,17.7,14.3,32,32,32s32-14.3,32-32Z"/>
</svg>