<?xml version="1.0" encoding="UTF-8"?>
<svg id="_레이어_1" data-name="레이어 1" xmlns="http://www.w3.org/2000/svg" width="640" height="512" version="1.1" viewBox="0 0 640 512">
  <defs>
    <style>
      .cls-1 {
        fill: #262b9c;
        stroke-width: 0px;
      }
    </style>
  </defs>
  <path class="cls-1" d="M160,64C160,28.7,188.7,0,224,0h352c35.3,0,64,28.7,64,64v288c0,35.3-28.7,64-64,64h-239.2c-11.8-25.5-29.9-47.5-52.4-64h99.6v-32c0-17.7,14.3-32,32-32h64c17.7,0,32,14.3,32,32v32h64V64H224v49.1c-18.8-10.9-40.7-17.1-64-17.1v-32ZM160,128c53,0,96,43,96,96s-43,96-96,96-96-43-96-96,43-96,96-96ZM133.3,352h53.3c73.7,0,133.4,59.7,133.4,133.3s-11.9,26.7-26.7,26.7H26.7c-14.8,0-26.7-11.9-26.7-26.7,0-73.6,59.7-133.3,133.3-133.3Z"/>
</svg>