<?xml version="1.0" encoding="UTF-8"?>
<svg id="_레이어_1" data-name="레이어 1" xmlns="http://www.w3.org/2000/svg" width="576" height="512" version="1.1" viewBox="0 0 576 512">
  <defs>
    <style>
      .cls-1 {
        fill: #262b9c;
        stroke-width: 0px;
      }
    </style>
  </defs>
  <path class="cls-1" d="M240,144c0-53-43-96-96-96s-96,43-96,96,43,96,96,96,96-43,96-96ZM284.4,176c-14.5,64.1-71.9,112-140.4,112S0,223.5,0,144,64.5,0,144,0s125.9,47.9,140.4,112h71.8c8.8-9.8,21.6-16,35.8-16h104c26.5,0,48,21.5,48,48s-21.5,48-48,48h-104c-14.2,0-27-6.2-35.8-16h-71.8ZM144,80c35.3,0,64,28.7,64,64s-28.7,64-64,64-64-28.7-64-64,28.7-64,64-64ZM400,240c13.3,0,24,10.7,24,24v8h96c13.3,0,24,10.7,24,24s-10.7,24-24,24h-240c-13.3,0-24-10.7-24-24s10.7-24,24-24h96v-8c0-13.3,10.7-24,24-24ZM288,464v-112h224v112c0,26.5-21.5,48-48,48h-128c-26.5,0-48-21.5-48-48ZM48,320h128c26.5,0,48,21.5,48,48s-21.5,48-48,48h-16c0,17.7-14.3,32-32,32h-64c-17.7,0-32-14.3-32-32v-80c0-8.8,7.2-16,16-16ZM176,384c8.8,0,16-7.2,16-16s-7.2-16-16-16h-16v32h16ZM24,464h176c13.3,0,24,10.7,24,24s-10.7,24-24,24H24c-13.3,0-24-10.7-24-24s10.7-24,24-24Z"/>
</svg>