<?xml version="1.0" encoding="UTF-8"?>
<svg id="_레이어_1" data-name="레이어 1" xmlns="http://www.w3.org/2000/svg" width="512" height="512" version="1.1" viewBox="0 0 512 512">
  <defs>
    <style>
      .cls-1 {
        fill: #262b9c;
        stroke-width: 0px;
      }
    </style>
  </defs>
  <path class="cls-1" d="M160,368c26.5,0,48,21.5,48,48v16l72.5-54.4c8.3-6.2,18.4-9.6,28.8-9.6h138.7c8.8,0,16-7.2,16-16V64c0-8.8-7.2-16-16-16H64c-8.8,0-16,7.2-16,16v288c0,8.8,7.2,16,16,16h96ZM208,492l-.2.2-5.1,3.8-17.1,12.8c-4.8,3.6-11.3,4.2-16.8,1.5s-8.8-8.2-8.8-14.3v-80h-96c-35.3,0-64-28.7-64-64V64C0,28.7,28.7,0,64,0h384c35.3,0,64,28.7,64,64v288c0,35.3-28.7,64-64,64h-138.7l-101.3,76Z"/>
</svg>